<svg width="299" height="46" viewBox="0 0 299 46" fill="#0d6efd" xmlns="http://www.w3.org/2000/svg">
<g clip-path="url(#clip0_212_228)">
<path d="M14.2669 43.6138C15.2869 43.6162 16.2858 43.3035 17.1432 42.7135C18.0006 42.1235 18.6799 41.2813 19.0993 40.2884L26.576 22.4573C27.1501 21.0897 27.1918 19.5346 26.6922 18.1341C26.1925 16.7336 25.1922 15.6024 23.9115 14.9894C22.6308 14.3764 21.1745 14.3318 19.8629 14.8654C18.5514 15.399 17.4921 16.4671 16.918 17.8347L9.44128 35.6515C9.07928 36.5116 8.92477 37.4549 8.99184 38.3953C9.05891 39.3356 9.34543 40.243 9.82525 41.0347C10.3051 41.8264 10.9629 42.4772 11.7388 42.9277C12.5146 43.3782 13.3838 43.6141 14.2669 43.6138Z" fill="#0d6efd"/>
<path d="M42.1606 43.6138C43.1797 43.6157 44.1774 43.3027 45.0337 42.7127C45.8899 42.1226 46.568 41.2807 46.9863 40.2884L54.463 22.4573C54.7472 21.7801 54.9038 21.0498 54.9237 20.308C54.9436 19.5662 54.8265 18.8275 54.5791 18.1341C54.3317 17.4406 53.9588 16.806 53.4817 16.2664C53.0046 15.7269 52.4326 15.293 51.7985 14.9894C51.1643 14.6859 50.4804 14.5187 49.7857 14.4974C49.0911 14.4762 48.3993 14.6012 47.7499 14.8654C47.1005 15.1296 46.5062 15.5278 46.0009 16.0373C45.4956 16.5467 45.0892 17.1575 44.805 17.8347L37.3283 35.6515C36.9679 36.5123 36.8148 37.4558 36.883 38.3959C36.9512 39.3361 37.2385 40.2431 37.7188 41.0345C38.199 41.8258 38.857 42.4763 39.6328 42.9268C40.4086 43.3773 41.2775 43.6135 42.1606 43.6138Z" fill="#0d6efd"/>
<path d="M5.89592 25.8183C8.82422 25.8183 11.1981 23.2834 11.1981 20.1564C11.1981 17.0295 8.82422 14.4946 5.89592 14.4946C2.96761 14.4946 0.59375 17.0295 0.59375 20.1564C0.59375 23.2834 2.96761 25.8183 5.89592 25.8183Z" fill="#0d6efd"/>
<path d="M28.7279 43.2626C31.6563 43.2626 34.0301 40.7277 34.0301 37.6008C34.0301 34.4738 31.6563 31.939 28.7279 31.939C25.7996 31.939 23.4258 34.4738 23.4258 37.6008C23.4258 40.7277 25.7996 43.2626 28.7279 43.2626Z" fill="#0d6efd"/>
<path d="M75.0932 29.9466L79.6437 18.8523H85.7311L74.724 45.0543H68.6836L75.0932 29.9466Z" fill="#0d6efd"/>
<path d="M86.0247 22.8944C86.6045 21.5887 87.5191 20.4853 88.6624 19.7123C89.7782 18.9664 91.071 18.5784 92.3873 18.5943C93.4603 18.5702 94.5218 18.8338 95.4747 19.3611C96.3 19.8284 96.9947 20.5208 97.4882 21.3679V18.8523H102.609V36.6189H97.515V34.1034C96.9947 34.9496 96.2809 35.6403 95.4411 36.1101C94.4878 36.6352 93.4262 36.8964 92.3538 36.8698C91.0451 36.8846 89.7605 36.4937 88.6557 35.7446C87.514 34.9539 86.6007 33.8398 86.018 32.5267C85.3478 31.0212 85.0147 29.37 85.0449 27.7034C85.0146 26.0406 85.3503 24.3934 86.0247 22.8944ZM96.4613 24.5213C96.1265 24.1517 95.7255 23.8579 95.2821 23.6572C94.8388 23.4565 94.3622 23.3531 93.8807 23.3531C93.3991 23.3531 92.9225 23.4565 92.4792 23.6572C92.0359 23.8579 91.6349 24.1517 91.3001 24.5213C90.9333 24.9536 90.6507 25.4594 90.4686 26.0094C90.2866 26.5593 90.2087 27.1425 90.2396 27.7249C90.179 28.9139 90.5601 30.0806 91.3001 30.9714C91.6329 31.3446 92.0333 31.6417 92.4769 31.8447C92.9205 32.0477 93.3981 32.1524 93.8807 32.1524C94.3633 32.1524 94.8409 32.0477 95.2845 31.8447C95.7281 31.6417 96.1284 31.3446 96.4613 30.9714C97.1997 30.091 97.581 28.9338 97.5217 27.7535C97.5525 27.1668 97.4747 26.5793 97.2927 26.0247C97.1108 25.4701 96.8282 24.9592 96.4613 24.5213Z" fill="#0d6efd"/>
<path d="M120.193 20.6795C121.421 22.2229 122.046 24.2118 121.938 26.2339V36.6186H116.871V26.972C116.937 25.9666 116.636 24.9728 116.032 24.1985C115.407 23.5568 114.573 23.1985 113.706 23.1985C112.839 23.1985 112.006 23.5568 111.381 24.1985C110.767 24.9685 110.456 25.9627 110.515 26.972V36.6186H105.414V18.852H110.515V21.2027C111.052 20.4032 111.77 19.762 112.602 19.3393C113.525 18.8757 114.535 18.6428 115.555 18.6585C116.419 18.6215 117.28 18.7828 118.08 19.1315C118.88 19.4801 119.6 20.008 120.193 20.6795Z" fill="#0d6efd"/>
<path d="M124.61 22.8941C125.28 21.5463 126.307 20.4394 127.563 19.712C128.894 18.9479 130.387 18.5629 131.899 18.594C133.779 18.5256 135.625 19.1423 137.134 20.3427C138.577 21.583 139.556 23.3351 139.892 25.2807H134.462C134.302 24.6638 133.947 24.1248 133.458 23.7541C132.97 23.3835 132.376 23.2038 131.778 23.2453C131.344 23.231 130.914 23.3291 130.523 23.5313C130.133 23.7335 129.794 24.0338 129.536 24.4063C128.928 25.3887 128.635 26.5561 128.704 27.7317C128.634 28.9074 128.927 30.0752 129.536 31.0572C129.793 31.431 130.132 31.7327 130.522 31.9361C130.913 32.1396 131.344 32.2389 131.778 32.2254C132.377 32.2665 132.971 32.0858 133.46 31.7137C133.949 31.3417 134.303 30.801 134.462 30.1828H139.892C139.542 32.118 138.557 33.8562 137.114 35.0849C135.62 36.3044 133.778 36.9349 131.899 36.8695C130.388 36.8993 128.896 36.5169 127.563 35.7586C126.308 35.0266 125.281 33.9178 124.61 32.5694C123.878 31.0789 123.513 29.4142 123.549 27.7317C123.513 26.0493 123.878 24.3846 124.61 22.8941Z" fill="#0d6efd"/>
<path d="M156.5 20.6797C157.719 22.2274 158.339 24.2145 158.231 26.234V36.6188H153.164V26.9722C153.217 25.96 152.899 24.9654 152.278 24.1987C151.653 23.557 150.819 23.1987 149.952 23.1987C149.085 23.1987 148.252 23.557 147.627 24.1987C147.013 24.9686 146.702 25.9629 146.761 26.9722V36.6188H141.66V13.0542H146.761V21.2388C147.316 20.4223 148.061 19.775 148.922 19.361C149.862 18.8785 150.893 18.6333 151.936 18.6443C152.789 18.6126 153.638 18.778 154.426 19.1293C155.214 19.4806 155.921 20.0095 156.5 20.6797Z" fill="#0d6efd"/>
<path d="M184.739 18.8523L180.236 36.6189H174.598L171.974 25.0875L169.289 36.6189H163.685L159.121 18.8523H164.222L166.578 31.552L169.383 18.8523H174.752L177.585 31.4875L179.907 18.8523H184.739Z" fill="#0d6efd"/>
<path d="M185.707 22.8944C186.287 21.5887 187.201 20.4853 188.345 19.7123C189.463 18.9655 190.758 18.5774 192.076 18.5943C193.147 18.5702 194.207 18.8339 195.157 19.3612C195.996 19.8212 196.703 20.5145 197.204 21.3679V18.8523H202.298V36.6189H197.204V34.1034C196.686 34.9513 195.971 35.6424 195.13 36.1101C194.177 36.6352 193.115 36.8964 192.043 36.8698C190.734 36.8837 189.45 36.4929 188.345 35.7446C187.203 34.9539 186.29 33.8398 185.707 32.5267C185.039 31.0206 184.708 29.3694 184.741 27.7034C184.706 26.0417 185.037 24.3947 185.707 22.8944ZM196.144 24.5213C195.815 24.1434 195.416 23.8434 194.972 23.6409C194.528 23.4384 194.049 23.3379 193.566 23.3459C193.083 23.3396 192.604 23.4408 192.159 23.6432C191.714 23.8455 191.313 24.1446 190.983 24.5213C190.617 24.9541 190.336 25.4602 190.155 26.0102C189.974 26.5601 189.897 27.143 189.929 27.7249C189.866 28.9131 190.244 30.0798 190.983 30.9714C191.315 31.3446 191.716 31.6417 192.159 31.8447C192.603 32.0477 193.081 32.1524 193.563 32.1524C194.046 32.1524 194.523 32.0477 194.967 31.8447C195.411 31.6417 195.811 31.3446 196.144 30.9714C196.882 30.091 197.263 28.9338 197.204 27.7535C197.235 27.1668 197.157 26.5793 196.975 26.0247C196.793 25.4701 196.511 24.9592 196.144 24.5213Z" fill="#0d6efd"/>
<path d="M212.405 19.5043C213.302 18.9425 214.325 18.6503 215.365 18.6586V24.3921H214.022C213 24.3115 211.985 24.6214 211.157 25.2665C210.526 25.8541 210.203 26.879 210.203 28.341V36.6188H205.109V18.8521H210.203V21.812C210.76 20.8707 211.513 20.0806 212.405 19.5043Z" fill="#0d6efd"/>
<path d="M232.505 29.0362H220.968C220.982 29.9866 221.337 30.8949 221.961 31.5732C222.547 32.1538 223.323 32.4674 224.122 32.4476C224.682 32.4968 225.242 32.3573 225.723 32.0487C226.205 31.7402 226.584 31.2781 226.807 30.7275H232.23C231.957 31.886 231.443 32.9638 230.726 33.881C229.986 34.8235 229.054 35.5735 228.001 36.074C226.845 36.6184 225.593 36.8897 224.33 36.8695C222.814 36.8977 221.315 36.5155 219.974 35.7587C218.714 35.0238 217.68 33.9164 216.994 32.5694C216.255 31.0814 215.885 29.4158 215.92 27.7318C215.884 26.0493 216.249 24.3847 216.981 22.8942C217.654 21.544 218.686 20.4368 219.947 19.7121C221.293 18.9886 222.779 18.6118 224.286 18.6118C225.793 18.6118 227.279 18.9886 228.625 19.7121C229.863 20.4187 230.884 21.4911 231.565 22.801C232.291 24.2367 232.654 25.8497 232.619 27.481C232.609 28.0013 232.57 28.5205 232.505 29.0362ZM227.377 26.0118C227.39 25.5956 227.316 25.1815 227.161 24.7997C227.005 24.4178 226.772 24.0778 226.478 23.8044C225.855 23.2414 225.058 22.9475 224.243 22.9802C223.456 22.9472 222.685 23.2225 222.075 23.7542C221.467 24.3398 221.08 25.1428 220.988 26.0118H227.377Z" fill="#0d6efd"/>
<path d="M73.3777 31.8025L67.2539 17.8706H72.3279L75.7539 26.1287" fill="#0d6efd"/>
</g>
<path d="M266.69 16.02C267.87 16.02 268.87 16.26 269.69 16.74C270.51 17.22 271.08 17.85 271.4 18.63L271.82 16.26H276.95L274.01 32.97C273.73 34.51 273.17 35.9 272.33 37.14C271.51 38.4 270.4 39.4 269 40.14C267.62 40.88 266.01 41.25 264.17 41.25C261.69 41.25 259.78 40.66 258.44 39.48C257.1 38.32 256.5 36.74 256.64 34.74H261.71C261.77 35.38 262.06 35.88 262.58 36.24C263.12 36.62 263.83 36.81 264.71 36.81C265.77 36.81 266.67 36.5 267.41 35.88C268.15 35.28 268.64 34.31 268.88 32.97L269.3 30.6C268.66 31.38 267.85 32.02 266.87 32.52C265.91 33 264.84 33.24 263.66 33.24C262.48 33.24 261.43 32.97 260.51 32.43C259.61 31.89 258.9 31.12 258.38 30.12C257.88 29.12 257.63 27.95 257.63 26.61C257.63 25.99 257.69 25.32 257.81 24.6C258.11 22.88 258.7 21.37 259.58 20.07C260.46 18.77 261.52 17.77 262.76 17.07C264 16.37 265.31 16.02 266.69 16.02ZM270.35 24.63C270.41 24.27 270.44 23.94 270.44 23.64C270.44 22.66 270.15 21.89 269.57 21.33C269.01 20.77 268.29 20.49 267.41 20.49C266.39 20.49 265.46 20.86 264.62 21.6C263.78 22.32 263.25 23.32 263.03 24.6C262.97 24.96 262.94 25.29 262.94 25.59C262.94 26.57 263.22 27.35 263.78 27.93C264.36 28.49 265.08 28.77 265.94 28.77C266.96 28.77 267.89 28.4 268.73 27.66C269.57 26.92 270.11 25.91 270.35 24.63ZM285.341 33.24C283.901 33.24 282.621 32.95 281.501 32.37C280.381 31.79 279.511 30.97 278.891 29.91C278.291 28.85 277.991 27.62 277.991 26.22C277.991 24.32 278.441 22.59 279.341 21.03C280.241 19.47 281.481 18.25 283.061 17.37C284.641 16.47 286.401 16.02 288.341 16.02C289.781 16.02 291.061 16.32 292.181 16.92C293.321 17.5 294.201 18.32 294.821 19.38C295.441 20.44 295.751 21.67 295.751 23.07C295.751 24.99 295.291 26.73 294.371 28.29C293.471 29.83 292.221 31.04 290.621 31.92C289.041 32.8 287.281 33.24 285.341 33.24ZM286.061 28.83C286.901 28.83 287.651 28.58 288.311 28.08C288.991 27.56 289.511 26.9 289.871 26.1C290.251 25.28 290.441 24.43 290.441 23.55C290.441 22.55 290.171 21.78 289.631 21.24C289.091 20.7 288.411 20.43 287.591 20.43C286.731 20.43 285.971 20.69 285.311 21.21C284.671 21.71 284.171 22.37 283.811 23.19C283.451 24.01 283.271 24.87 283.271 25.77C283.271 26.75 283.531 27.51 284.051 28.05C284.571 28.57 285.241 28.83 286.061 28.83Z" fill="#0d6efd"/>
<g clip-path="url(#clip1_212_228)">
<path d="M251.909 25.375C253.037 25.375 255 26.3379 255 27.5C255 28.6953 253.037 29.625 251.909 29.625H248.063L244.748 35.4654C244.56 35.7975 244.21 36 243.831 36H241.977C241.627 36 241.373 35.6613 241.469 35.3227L243.085 29.625H239.694L238.269 31.5375C238.17 31.6703 238.012 31.75 237.847 31.75H236.462C236.205 31.75 236 31.5408 236 31.2852C236 31.242 236.007 31.1988 236.016 31.1557L237.056 27.5L236.016 23.8443C236.003 23.8012 236 23.758 236 23.7148C236 23.4559 236.208 23.25 236.462 23.25H237.847C238.012 23.25 238.17 23.3297 238.269 23.4625L239.694 25.375H243.089L241.472 19.6773C241.373 19.3387 241.627 19 241.977 19H243.831C244.21 19 244.56 19.2059 244.748 19.5346L248.063 25.375H251.909Z" fill="#0d6efd"/>
</g>
<defs>
<clipPath id="clip0_212_228">
<rect width="233" height="33" fill="#0d6efd" transform="translate(0 13)"/>
</clipPath>
<clipPath id="clip1_212_228">
<rect width="19" height="17" fill="#0d6efd" transform="translate(236 19)"/>
</clipPath>
</defs>
</svg>
