<svg width="70" height="32" viewBox="0 0 70 32" fill="none" xmlns="http://www.w3.org/2000/svg">
<path d="M29.3064 12.625C31.3845 12.625 35 14.3809 35 16.5C35 18.6797 31.3845 20.375 29.3064 20.375H22.2214L16.1146 31.0252C15.7682 31.6307 15.1241 32 14.4253 32H11.0104C10.3663 32 9.89844 31.3824 10.0747 30.7648L13.0521 20.375H6.80556L4.18056 23.8625C3.99826 24.1047 3.7066 24.25 3.40278 24.25H0.850694C0.376736 24.25 0 23.8686 0 23.4023C0 23.3236 0.0121528 23.2449 0.0303819 23.1662L1.94444 16.5L0.0303819 9.83379C0.00607639 9.75508 0 9.67637 0 9.59766C0 9.12539 0.382813 8.75 0.850694 8.75H3.40278C3.7066 8.75 3.99826 8.89531 4.18056 9.1375L6.80556 12.625H13.0582L10.0807 2.23516C9.89844 1.61758 10.3663 1 11.0104 1H14.4253C15.1241 1 15.7682 1.37539 16.1146 1.9748L22.2214 12.625H29.3064Z" fill="white"/>
<path d="M45.46 10.68C46.2467 10.68 46.9133 10.84 47.46 11.16C48.0067 11.48 48.3867 11.9 48.6 12.42L48.88 10.84H52.3L50.34 21.98C50.1533 23.0067 49.78 23.9333 49.22 24.76C48.6733 25.6 47.9333 26.2667 47 26.76C46.08 27.2533 45.0067 27.5 43.78 27.5C42.1267 27.5 40.8533 27.1067 39.96 26.32C39.0667 25.5467 38.6667 24.4933 38.76 23.16H42.14C42.18 23.5867 42.3733 23.92 42.72 24.16C43.08 24.4133 43.5533 24.54 44.14 24.54C44.8467 24.54 45.4467 24.3333 45.94 23.92C46.4333 23.52 46.76 22.8733 46.92 21.98L47.2 20.4C46.7733 20.92 46.2333 21.3467 45.58 21.68C44.94 22 44.2267 22.16 43.44 22.16C42.6533 22.16 41.9533 21.98 41.34 21.62C40.74 21.26 40.2667 20.7467 39.92 20.08C39.5867 19.4133 39.42 18.6333 39.42 17.74C39.42 17.3267 39.46 16.88 39.54 16.4C39.74 15.2533 40.1333 14.2467 40.72 13.38C41.3067 12.5133 42.0133 11.8467 42.84 11.38C43.6667 10.9133 44.54 10.68 45.46 10.68ZM47.9 16.42C47.94 16.18 47.96 15.96 47.96 15.76C47.96 15.1067 47.7667 14.5933 47.38 14.22C47.0067 13.8467 46.5267 13.66 45.94 13.66C45.26 13.66 44.64 13.9067 44.08 14.4C43.52 14.88 43.1667 15.5467 43.02 16.4C42.98 16.64 42.96 16.86 42.96 17.06C42.96 17.7133 43.1467 18.2333 43.52 18.62C43.9067 18.9933 44.3867 19.18 44.96 19.18C45.64 19.18 46.26 18.9333 46.82 18.44C47.38 17.9467 47.74 17.2733 47.9 16.42ZM57.8942 22.16C56.9342 22.16 56.0809 21.9667 55.3342 21.58C54.5876 21.1933 54.0076 20.6467 53.5942 19.94C53.1942 19.2333 52.9942 18.4133 52.9942 17.48C52.9942 16.2133 53.2942 15.06 53.8942 14.02C54.4942 12.98 55.3209 12.1667 56.3742 11.58C57.4276 10.98 58.6009 10.68 59.8942 10.68C60.8542 10.68 61.7076 10.88 62.4542 11.28C63.2142 11.6667 63.8009 12.2133 64.2142 12.92C64.6276 13.6267 64.8342 14.4467 64.8342 15.38C64.8342 16.66 64.5276 17.82 63.9142 18.86C63.3142 19.8867 62.4809 20.6933 61.4142 21.28C60.3609 21.8667 59.1876 22.16 57.8942 22.16ZM58.3742 19.22C58.9342 19.22 59.4342 19.0533 59.8742 18.72C60.3276 18.3733 60.6742 17.9333 60.9142 17.4C61.1676 16.8533 61.2942 16.2867 61.2942 15.7C61.2942 15.0333 61.1142 14.52 60.7542 14.16C60.3942 13.8 59.9409 13.62 59.3942 13.62C58.8209 13.62 58.3142 13.7933 57.8742 14.14C57.4476 14.4733 57.1142 14.9133 56.8742 15.46C56.6342 16.0067 56.5142 16.58 56.5142 17.18C56.5142 17.8333 56.6876 18.34 57.0342 18.7C57.3809 19.0467 57.8276 19.22 58.3742 19.22Z" fill="white"/>
</svg>
