<svg viewBox="0 0 233 33" fill="#0d6efd" xmlns="http://www.w3.org/2000/svg">
<path d="M14.2669 30.6138C15.2869 30.6162 16.2858 30.3035 17.1432 29.7135C18.0006 29.1235 18.6799 28.2813 19.0993 27.2884L26.576 9.45728C27.1501 8.08968 27.1918 6.53458 26.6922 5.13408C26.1925 3.73359 25.1922 2.60242 23.9115 1.98942C22.6308 1.37643 21.1745 1.33181 19.8629 1.8654C18.5514 2.39898 17.4921 3.46706 16.918 4.83466L9.44128 22.6515C9.07928 23.5116 8.92477 24.4549 8.99184 25.3953C9.05891 26.3356 9.34543 27.243 9.82525 28.0347C10.3051 28.8264 10.9629 29.4772 11.7388 29.9277C12.5146 30.3782 13.3838 30.6141 14.2669 30.6138Z" fill="#0d6efd"/>
<path d="M42.1606 30.6138C43.1797 30.6157 44.1774 30.3027 45.0337 29.7127C45.8899 29.1226 46.568 28.2807 46.9863 27.2884L54.463 9.45728C54.7472 8.78012 54.9038 8.0498 54.9237 7.30802C54.9436 6.56624 54.8265 5.82754 54.5791 5.13408C54.3317 4.44063 53.9588 3.806 53.4817 3.26644C53.0046 2.72688 52.4326 2.29295 51.7985 1.98942C51.1643 1.6859 50.4804 1.51872 49.7857 1.49744C49.0911 1.47616 48.3993 1.60119 47.7499 1.8654C47.1005 2.1296 46.5062 2.52781 46.0009 3.03727C45.4956 3.54674 45.0892 4.1575 44.805 4.83466L37.3283 22.6515C36.9679 23.5123 36.8148 24.4558 36.883 25.3959C36.9512 26.3361 37.2385 27.2431 37.7188 28.0345C38.199 28.8258 38.857 29.4763 39.6328 29.9268C40.4086 30.3773 41.2775 30.6135 42.1606 30.6138Z" fill="#0d6efd"/>
<path d="M5.89592 12.8183C8.82422 12.8183 11.1981 10.2834 11.1981 7.15644C11.1981 4.02951 8.82422 1.49463 5.89592 1.49463C2.96761 1.49463 0.59375 4.02951 0.59375 7.15644C0.59375 10.2834 2.96761 12.8183 5.89592 12.8183Z" fill="#0d6efd"/>
<path d="M28.7279 30.2626C31.6563 30.2626 34.0301 27.7277 34.0301 24.6008C34.0301 21.4738 31.6563 18.939 28.7279 18.939C25.7996 18.939 23.4258 21.4738 23.4258 24.6008C23.4258 27.7277 25.7996 30.2626 28.7279 30.2626Z" fill="#0d6efd"/>
<path d="M75.0932 16.9466L79.6437 5.85229H85.7311L74.724 32.0543H68.6836L75.0932 16.9466Z" fill="#0d6efd"/>
<path d="M86.0247 9.8944C86.6045 8.58869 87.5191 7.4853 88.6624 6.71232C89.7782 5.9664 91.071 5.57835 92.3873 5.59429C93.4603 5.57017 94.5218 5.83384 95.4747 6.36114C96.3 6.82842 96.9947 7.52081 97.4882 8.36786V5.8523H102.609V23.6189H97.515V21.1034C96.9947 21.9496 96.2809 22.6403 95.4411 23.1101C94.4878 23.6352 93.4262 23.8964 92.3538 23.8698C91.0451 23.8846 89.7605 23.4937 88.6557 22.7446C87.514 21.9539 86.6007 20.8398 86.018 19.5267C85.3478 18.0212 85.0147 16.37 85.0449 14.7034C85.0146 13.0406 85.3503 11.3934 86.0247 9.8944ZM96.4613 11.5213C96.1265 11.1517 95.7255 10.8579 95.2821 10.6572C94.8388 10.4565 94.3622 10.3531 93.8807 10.3531C93.3991 10.3531 92.9225 10.4565 92.4792 10.6572C92.0359 10.8579 91.6349 11.1517 91.3001 11.5213C90.9333 11.9536 90.6507 12.4594 90.4686 13.0094C90.2866 13.5593 90.2087 14.1425 90.2396 14.7249C90.179 15.9139 90.5601 17.0806 91.3001 17.9714C91.6329 18.3446 92.0333 18.6417 92.4769 18.8447C92.9205 19.0477 93.3981 19.1524 93.8807 19.1524C94.3633 19.1524 94.8409 19.0477 95.2845 18.8447C95.7281 18.6417 96.1284 18.3446 96.4613 17.9714C97.1997 17.091 97.581 15.9338 97.5217 14.7535C97.5525 14.1668 97.4747 13.5793 97.2927 13.0247C97.1108 12.4701 96.8282 11.9592 96.4613 11.5213Z" fill="#0d6efd"/>
<path d="M120.193 7.67955C121.421 9.22289 122.046 11.2118 121.938 13.2339V23.6186H116.871V13.972C116.937 12.9666 116.636 11.9728 116.032 11.1985C115.407 10.5568 114.573 10.1985 113.706 10.1985C112.839 10.1985 112.006 10.5568 111.381 11.1985C110.767 11.9685 110.456 12.9627 110.515 13.972V23.6186H105.414V5.852H110.515V8.20273C111.052 7.40316 111.77 6.76205 112.602 6.33935C113.525 5.87569 114.535 5.64284 115.555 5.6585C116.419 5.62154 117.28 5.78284 118.08 6.13149C118.88 6.48015 119.6 7.00805 120.193 7.67955Z" fill="#0d6efd"/>
<path d="M124.61 9.89411C125.28 8.54628 126.307 7.43938 127.563 6.71203C128.894 5.9479 130.387 5.56285 131.899 5.594C133.779 5.52559 135.625 6.14228 137.134 7.34272C138.577 8.58302 139.556 10.3351 139.892 12.2807H134.462C134.302 11.6638 133.947 11.1248 133.458 10.7541C132.97 10.3835 132.376 10.2038 131.778 10.2453C131.344 10.231 130.914 10.3291 130.523 10.5313C130.133 10.7335 129.794 11.0338 129.536 11.4063C128.928 12.3887 128.635 13.5561 128.704 14.7317C128.634 15.9074 128.927 17.0752 129.536 18.0572C129.793 18.431 130.132 18.7327 130.522 18.9361C130.913 19.1396 131.344 19.2389 131.778 19.2254C132.377 19.2665 132.971 19.0858 133.46 18.7137C133.949 18.3417 134.303 17.801 134.462 17.1828H139.892C139.542 19.118 138.557 20.8562 137.114 22.0849C135.62 23.3044 133.778 23.9349 131.899 23.8695C130.388 23.8993 128.896 23.5169 127.563 22.7586C126.308 22.0266 125.281 20.9178 124.61 19.5694C123.878 18.0789 123.513 16.4142 123.549 14.7317C123.513 13.0493 123.878 11.3846 124.61 9.89411Z" fill="#0d6efd"/>
<path d="M156.5 7.67973C157.719 9.22741 158.339 11.2145 158.231 13.234V23.6188H153.164V13.9722C153.217 12.96 152.899 11.9654 152.278 11.1987C151.653 10.557 150.819 10.1987 149.952 10.1987C149.085 10.1987 148.252 10.557 147.627 11.1987C147.013 11.9686 146.702 12.9629 146.761 13.9722V23.6188H141.66V0.0541992H146.761V8.23875C147.316 7.42231 148.061 6.77499 148.922 6.36103C149.862 5.87853 150.893 5.63332 151.936 5.64434C152.789 5.6126 153.638 5.77804 154.426 6.12934C155.214 6.48063 155.921 7.00949 156.5 7.67973Z" fill="#0d6efd"/>
<path d="M184.739 5.85229L180.236 23.6189H174.598L171.974 12.0875L169.289 23.6189H163.685L159.121 5.85229H164.222L166.578 18.552L169.383 5.85229H174.752L177.585 18.4875L179.907 5.85229H184.739Z" fill="#0d6efd"/>
<path d="M185.707 9.89441C186.287 8.58869 187.201 7.48531 188.345 6.71232C189.463 5.96546 190.758 5.57738 192.076 5.59429C193.147 5.57015 194.207 5.83385 195.157 6.36115C195.996 6.82122 196.703 7.51449 197.204 8.36787V5.8523H202.298V23.6189H197.204V21.1034C196.686 21.9513 195.971 22.6424 195.13 23.1101C194.177 23.6352 193.115 23.8964 192.043 23.8698C190.734 23.8837 189.45 23.4929 188.345 22.7446C187.203 21.9539 186.29 20.8398 185.707 19.5267C185.039 18.0206 184.708 16.3694 184.741 14.7034C184.706 13.0417 185.037 11.3947 185.707 9.89441ZM196.144 11.5213C195.815 11.1434 195.416 10.8434 194.972 10.6409C194.528 10.4384 194.049 10.3379 193.566 10.3459C193.083 10.3396 192.604 10.4408 192.159 10.6432C191.714 10.8455 191.313 11.1446 190.983 11.5213C190.617 11.9541 190.336 12.4602 190.155 13.0102C189.974 13.5601 189.897 14.143 189.929 14.7249C189.866 15.9131 190.244 17.0798 190.983 17.9714C191.315 18.3446 191.716 18.6417 192.159 18.8447C192.603 19.0477 193.081 19.1524 193.563 19.1524C194.046 19.1524 194.523 19.0477 194.967 18.8447C195.411 18.6417 195.811 18.3446 196.144 17.9714C196.882 17.091 197.263 15.9338 197.204 14.7535C197.235 14.1668 197.157 13.5793 196.975 13.0247C196.793 12.4701 196.511 11.9592 196.144 11.5213Z" fill="#0d6efd"/>
<path d="M212.405 6.50431C213.302 5.9425 214.325 5.65029 215.365 5.65862V11.3921H214.022C213 11.3115 211.985 11.6214 211.157 12.2665C210.526 12.8541 210.203 13.879 210.203 15.341V23.6188H205.109V5.85213H210.203V8.81204C210.76 7.8707 211.513 7.08059 212.405 6.50431Z" fill="#0d6efd"/>
<path d="M232.505 16.0362H220.968C220.982 16.9866 221.337 17.8949 221.961 18.5732C222.547 19.1538 223.323 19.4674 224.122 19.4476C224.682 19.4968 225.242 19.3573 225.723 19.0487C226.205 18.7402 226.584 18.2781 226.807 17.7275H232.23C231.957 18.886 231.443 19.9638 230.726 20.881C229.986 21.8235 229.054 22.5735 228.001 23.074C226.845 23.6184 225.593 23.8897 224.33 23.8695C222.814 23.8977 221.315 23.5155 219.974 22.7587C218.714 22.0238 217.68 20.9164 216.994 19.5694C216.255 18.0814 215.885 16.4158 215.92 14.7318C215.884 13.0493 216.249 11.3847 216.981 9.89417C217.654 8.54405 218.686 7.43684 219.947 6.71209C221.293 5.98863 222.779 5.61182 224.286 5.61182C225.793 5.61182 227.279 5.98863 228.625 6.71209C229.863 7.41871 230.884 8.49113 231.565 9.80101C232.291 11.2367 232.654 12.8497 232.619 14.481C232.609 15.0013 232.57 15.5205 232.505 16.0362ZM227.377 13.0118C227.39 12.5956 227.316 12.1815 227.161 11.7997C227.005 11.4178 226.772 11.0778 226.478 10.8044C225.855 10.2414 225.058 9.94746 224.243 9.98018C223.456 9.94723 222.685 10.2225 222.075 10.7542C221.467 11.3398 221.08 12.1428 220.988 13.0118H227.377Z" fill="#0d6efd"/>
<path d="M73.3777 18.8025L67.2539 4.87061H72.3279L75.7539 13.1287" fill="#0d6efd"/>
</svg>
